<svg clip-rule="evenodd" fill-rule="evenodd" stroke-linejoin="round" stroke-miterlimit="2" viewBox="0 0 794 821" xmlns="http://www.w3.org/2000/svg"><g fill-opacity=".4"><path d="m9.871 818.101c-1.403-4.383 10.239-11.116 13.084-7.39-6.471 4.236-7.798 6.973-12.024 7.856zm144.884.136c-7.941-5.959 2.884-13.641 1.429-23.587 1.516-8.263 8.128-18.329 4.286-25.252 6.74-12.934 9.77-28.959 18.647-41.357 7.206-14.904 4.451-30.865 15.892-42.978-6.954-7.36-13.3 7.015-14.355 8.453-3.21 3.76-6.777 9.933-11.076 7.909-7.278-.608-13.842 10.246-19.548 17.334-5.065 16.691-17.202 4.27-26.366 10.762-7.505-1.91-15.771 9.986-14.033 7.784-7.066-6.709 18.458-17.174 4.134-13.267.094-5.411-11.477-.22-16.354 4.317-11.437 5.764-23.322 15.991-34.877 19.061-6.287 4.969-13.549 16.111-16.182 12.733-8.996 2.984-9.598-.445-4.069-5.164 7.11-1.545 9.248-10.694 16.691-10.686 9.714-7.11 25.315-14.34 37.608-21.851 32.405-16.909 66.033-32.886 97.705-51.588 20.936-8.434 25.523-31.447 33.424-50.323-32.003-47.461-56.886-100.724-63.764-158.139-28.064-23.34-33.355-61.617-35.179-95.777.273-33.252-25.989-60.906-16.881-94.829-2.776-29.182 9.527-55.067 7.592-83.913-2.583-19.851-4.7-36.396-5.668-56.377-5.451-17.655 5.831-34.976 3.862-51.047 5.115-20.517 3.316-39.704 11.758-58.805-1.599-22.196 17.374-18.602 32.882-18.136 48.88-.041 98.498.027 146.773.214-2.335 8.818-7.513 6.437 4.722 12.801-12.318 5.649 12.057 15.416-.824 6.125 10.38-12.468 1.563 5.949 9.147 1.494.898-4.568 24.331-6.159 20.83-2.689-4.572 3.614-.397 8.759 2.438 12.846-12.522-4.493 4.598 21.47 5.051 14.448 2.389-10.635 8.105-7.669 7.588 1.913 8.176-8.374 21.877 5.934 3.597 1.809-11.778.141 2.442 26.187-10.045 15.16-16.893-1.348-10.341 19.847-8.425 15.141-15.18-2.131-6.241 12.621 4.279 2.975 1.546 9.093 22.006 6.718 21.565-2.073 2.597 2.519 10.72 10.334-3.192 12.475-18.705-4.437-20.543 14.528-3.5 4.22 14.248-.86-10.098 19.922.507 6.546-10.576 1.375-23.993-3.968-33.625 7.009-4.273-7.833-13.034-3.862-23.595-.494-14.6-4.868 5.456 14.007 4.297 13.435 9.774 9.93 13.055-3.046 8.311 13.523 9.387 1.308-4.866-8.165 6.525-3.313 4.326 4.343 13.428-2.431 21.594 7.791 11.774-.093 8.623-3.273 15.417.647 9.158 6.745 4.608-26.541 13.979-7.364.616-5.709 8.69 2.667 13.893-12.085 7.508-17.814 3.73.743 1.723 5.49 8.668 3.073 20.091 23.462 27.79 12.806 5.215.225 27.387 7.748 14.187-3.495-6.32-4.21 4.401-5.552 10.147-9.218-.953 8.474 13.012 8.752 6.605.808-1.369-14.327 15.584 4.021 17.87-5.976 1.898-5.459-11.324-10.453-2.096-13.376 6.862 8.616 7.549 2.93 15.853 7.456-2.857 13.197 11.312-9.723-5.477-4.682 10.374-6.813-16.961-18.714-11.316-12.34-7.546-2.074-13.765-8.765-22.879-2.809-3.23-5.747-21.037-4.611-19.199-5.535 4.161 11.165-1.953-10.925-5.851-.889-.088-.05-12.957-1.215-7.381 8.488-13.689 3.65-5.307 13.416-11.397 21.149-3.471 9.835-.761-23.779-10.18.693-5.087 2.892-7.006-6.746-7.105-16.458-12.892 5.014 7.841-17.97-7.013-13.812 8.935-7.624 7.173-4.395 7.17-.657 15.679-1.512 11.132-7.082 31.182-8.893 10.871-4.597 47.672-2.936 36.876-12.941-10.863-2.515-14.251-8.067-8.513-16.09 5.003 4.825-3.11 6.462 15.359 7.885 8.428-6.053-21.178-12.182-3.024-10.594-2.684-8.565-3.518-6.701 6.243-7.491-2.124-12.848-14.38-1.863-23.116-5.387-7.731 4.849-46.662.865-21.968-1.427 13.145-7.108 27.586-1.174 40.434-6.757 1.993 1.337 5.63-6.709 13.852-3.195 9.93 8.228 12.446-20.239 11.54-15.753 8.637-9.973 18.12-10.788 32.672-9.429 67.188.44 134.958-1.121 201.884.548 4.415 10.812 15.832 25.95 9.769 37.255 6.31 15.268 3.497 29.566 9.513 46.061 4.175 13.422.404 29.677 4.741 40.677 1.629 20.544 16.476 44.272 10.796 61.515 7.013 27.515 26.777 56.303 18.58 88.903-6.549 32.124-17.769 63.305-23.925 95.625-10.104 28.024-16.969 82.403-59.164 71.458-22.549-6.628-9.388 48.828-23.037 66.802-13.642 20.824 9.083 36.027 18.439 53.024 14.904 17.359 20.076 47.324 46.195 48.895 28.157 4.621 25.532 19.193 0 13.37 6.416 3.632 16.818 31.625 3.328 17.71-6.925-2.387-13.095-15.729-19.541-22.875-.619-8.287-14.048-25.574-14.193-14.462-5.761 4.34-10.935 4.825-7.448 10.197-4.237 6.226-3.364 18.994-6.652 28.668 1.852 10.37-1.777 14.07-2.238 26.934-.629 10.233-.983 21.436-2.606 31.314 2.489 7.981-11.683 1.837-5.101-9.587-2.442-11.46-2.091-17.262-3.571-29.293 1.228-9.271-3.711-19.717-4.137-26.341-2.586-7.128.436-16.749-5.375-16.501-4.205 35.876-4.464 72.949-11.791 108.775-2.328 21.342-8.177 41.511-17.571 60.289-5.328 23.27-18.29 32.651-43.685 25.831-106.956.142-213.917.486-320.869-.247-2.654-26.004-16.093-48.535-19.623-74.475-4.893-9.233-4.357-41.57-16.633-35.409-6.863 10.415-7.679 19.033-4.997 30.827-1.571 3.03.151 24.472-9.182 16.993-4.798-8.965-6-2.177-12.983 1.427-1.76 10.381-14.389 19.101-17.65 33.047-5.391 10.881-12.414 15.372-19.664 25.854-2.351 3.192-6.089 1.448-9.462 1.789zm246.454-433.471c3.963-13.16-4.635-34.008-16.153-43.903-6.323-3.621-6.656 1.586-9.782 10.378 2.529 10.725-8.93 25.466-7.866 20.727 7.271 8.483 18.867 12.714 31.464 10.565.573.724.896 2.822 2.337 2.233zm128.327-14.767c1.535-15.212 16.792-6.268 14.477-22.95-1.602 8.925-10.747 7.11-10.471-1.485-9.317 9.377-13.349-19.292-19.97-5-6.838-.017-5.565-2.811-10.617-.437-1.029-11.372-13.126 7.875-11.358 4.682 4.233 6.066-.359 10.558 9.485 16.786 10.224 1.972 17.699 9.695 26.764 7.382l.012.943 1.677.079zm-26.729-14.949c-3.428-12.6 10.871-2.665 0 0zm-30.597-47.3c10.626-2.695-13.245-15.16-13.153-13.931-.52 7.431 7.67 11.572 13.153 13.931zm-73.607-89.094c23.281-13.252-33.784-14.983-9.894-10.515-1.092 3.192-.619 9.59 7.822 11.167zm-60.47-120.156c16.321-3.291 19.854-3.923-.253-4.144-4.116-.888-5.775 8.33.253 4.144zm-230.792 705.369c-12.275-4.228 1.367-15.341 3.617-26.707-3.583-13.911 30.992-37.649 26.052-26.791-9.471 14.578-14.401 32.106-24.451 45.689-1.235 2.949-1.84 6.523-5.218 7.809zm684.285-162.502c-11.376.897-16.199-8.028-2.076-3.808 2.708.489 7.274 5.146 2.076 3.808zm-15.139-.346c-5.771-2.017-5.128-9.23.29-1.977 3.066-1.011.635 4.242-.29 1.977zm-347.363-584.503c.944-10.388 19.271-.641 0 0zm-35.499-8.939c-5.662-5.452-6.581-24.177 5.601-14.349-1.365 6.516 7.065 15.653-5.601 14.349zm-44.907-5.692c-9.868-6.032-6.747-4.137 2.45-5.398 3.496-4.354 8.177 1.201-1.938 6.229zm-16.575-24.237c-7.24-2.817.493-13.921 3.056-2.959 1.753 1.535-2.885 2.835-3.056 2.959z" fill="#ddd"/><path d="m272.296 818.033c-15.592-31.301-16.513-68.399-28.589-101.467-8.913-21.853-5.024-64.892-16.107-74.931-7.136 11.25-6.204 7.484-7.076 15.732-2.151 10.185-4.32 13.412-8.55 19.036-3.702-2.082 5.042-12.272 3.823-18.54 4.764-17.367 21.45-36.963 3.852-52.437-29.332-42.941-48.004-92.718-55.272-144.168-27.802-24.018-32.357-61.805-34.901-96.079 1.457-29.93-23.087-54.225-17.251-84.272-2.361-35.116 11.863-66.622 8.203-101.652-4.128-15.307-2.599-34.939-5.485-51.401-4.844-13.432 6.053-25.372 3.111-39.195 5.844-28.785 5.206-58.028 18.398-85.151 39.268.466 80.544-1.07 118.393.959-3.577 5.315 13.753-.825 10.377 11.652 9.04 1.338-9.01 18.084-10.729 26.194 11.051 4.181 10.022 10.349 15.856 17.112 22.838-4.758-13.936 11.985-.897 13.776 7.58-2.469-7.886 16.656-6.008 23.608 7.778.631 11.388-28.154 15.837-13.244-11.182 18.685 23.287 8.147-11.52 16.117-11.024 1.538-8.789 30.022-14.048 11.504-11.348.378-11.961 9.364-12.892 17.164 7.536 12.067-8.226 3.014-9.565 11.906-2.821 1.991-11.834 11.98-21.26 12.806-12.176 3.614 11.771 3.989.616 12.695-2.019 4.69-8.082 14.363 8.794 13.707 5.06 1.186 23.062-4.482 25.954-7.476-5.768-9.477 9.912-4.149 22.381-2.406 11.694.052 19.55 4.517 30.004 3.373 11.316-1.168 21.075 6.651 30.365 1.466 9.743 7.305 17.385 6.369 25.948 8.918-12.123 6.062 13.273 8.598 9.558 16.425 1.314 5.63-6.433 7.994-.58 15.109 10.731 8.87 8.056 14.733 19.138 25.624-8.224 3.384-17.612 29.345-2.21 29.493-3.191 2.034-12.679 14.421-5.071 19.672-1.541 9.603 2.573 40.383 1.655 35.753-13.715 9.607-9.624 24.672-16.034 35.101.808 12.141-8.702 30.498 2.969 38.666 9.464-.277 1.175 19.99 21.254 9.977-1.465-22.793 12.181 8.52 17.729-6.118 7.686-10.136 15.198-24.166 6.683-33.509-.987-11.481-8.299-21.278-8.934-34.61-11.273 8.189-26.117-28.956-11.069-13.738 8.757-9.918 6.9-24.72 9.118-35.608 7.82-9.458-3.098-9.729-12.551-10.309.963-3.231 17.221-5.652 12.653-17.549 1.709-6.032 9.717-12.595 9.834-21.696 3.249-10.744 12.45-27.752 3.608-37.164-2.425-5.837 1.457-12.64 11.11-16.151 8.311-5.784 16.089-1.248 25.352-6.366 14.967-10.366 23.539-5.612 37.911-10.398-2.169-3.413 23.44-3.715 24.23-4.039 9.661-1.136 42.189 6.932 11.792 4.809 11.25 3.062 30.927 12.009 46.096 4.826-6.658.127-.23-14.626-8.405-18.401-.61-6.828-11.399-19.951-4.777-24.684-11.631-12.626-9.58-11.858-17.33-13.403-12.162-8.115-2.98-14.93-13.198-22.576-5.311-5.287-12.459-23.986 4.261-21.264 9.367 9.353 12.699-10.343 6.658-10.901 4.503-9.959-8.03-9.96-14.115-18.403-12.97.986 5.383-4.435.393-11.939-1.594 7.805 28.552 25.636 16.315 10.252-11.755-7.989-9.173-16.046-4.966-27.278 13.832-19.721 50.256-4.299 72.349-9.422 35.856.489 72.31-1.041 107.823.877 11.218 18.161 8.279 36.351 13 55.688 1.494 18.336 10.148 33.972 6.991 52.281 2.949 20.516 10.229 38.053 12.595 59.233-5.057 26.602 13.352 39.161 18.956 65.081 12.052 46.69-15.223 89.996-21.091 135.437-11.831 27.153-12.475 73.282-51.129 74.649-33.084-20.582-16.538 35.603-28.317 54.451-10.347 20.415-8.273 39.846 7.944 56.207 3.886 11.734-11.338-10.304-11.47-6.127-8.855-9.868-5.523-2.073-8.507 12.585 1.194 39.712 1.91 79.376-1.686 119.055.325 41.034-9.188 81.196-27.133 117.939-7.622 37.763-61.971 8.302-89.367 17.649-87.261-.229-174.548.563-261.797-.492zm108.046-129.709c13.712 1.194 19.661-13.655 28.669-12.048 5.224 14.095 1.035-3.369 13.658 5.691 11.991 10.321-5.133-8.148 6.592-9.694 11.684-2.139 10.621-9.172 12.319-13.938 11.728-1.704 4.831 18.447 15.067-2.183-9.853 3.455-1.063-5.055-7.219-8.279 2.528-9.161-11.6 18.431-5.647-2.071-3.444-11.654-7.212 9.96-15.008 1.468 1.763-3.097 4.537-6.452 6.232-15.174-8.227 2.915-11.878 8.068-10.437 1.54-.749-9.045-10.021-16.593-20.076-15.72 10.662.132 21.585-10.984 20.144 5.573 5.551 5.933 9.257 9.677 8.001-4.357 2.009-12.52 2.658 14.723 14.846 10.732 18.539 9.85-12.557-14.545.785-6.49 17.279-4.149 11.339 23.921 18.125 17.348 3.143-19.267 8.134-16.406 6.956-10.98 4.736-9.737 3.365 5.167 6.905 1.2-9.615 11.065 10.105 7.861 6.834 9.41 7.133 2.956 6.658-20.611 14.206-15.662-2.954-4.126 10.194-16.2-3.39-27.986 10.804-2.582-7.949-22.533 1.983-30.65-9.74 3.283-.061-22.847.395-11.103 3.293 11.886 7.602-10.321 13.174-5.163-7.409-9.467 5.982-22.158 13.1-20.013 10.746-.658-5.786 18.802 1.336 28.369 8.058-8.035 25.912 3.838 35.142-5.359 6.116-12.016-16.849-26.411-.289-21.297.428 7.847 7.374-9.456 5.265-14.453 1.271-9.625 17.745-35.513 2.793-34.143 1.16-8.547-3.255-32.009-11.359-26.735-1.773 5.798-2.023-3.351-6.723 6.22 9.175 11.809 4.238 17.433.168 29.822 4.111 12.241-26.771 32.283-14.13 20.335-4.729-5.166-22.28-18.682-37.722-10.818-7.13 7.71-3.299 20.342-12.706 27.383-9.248 3.99-14.888 9.095-19.921 16.294-8.609 6.441-17.428 9.339-31.716 13.516-8.972 3.4-19.621 6.919-30.764 5.611-1.982 11.764-15.322 17.086-21.277 5.089-5.403 5.15-13.181 4.313-14.412-5.89-5.508-1.24-8.696 20.365-16.968-.44-5.383 3.562-16.567-5.122-19.843-4.027 5.725 21.215-7.674-16.326-12.383-2.259-.221-2.847-5.651-9.939-10.609-.474.351 21.338 10.416-2.265 16.48 9.301 1.976 13.099-14.131-.846-.035 11.931 7.194-15.956 15.11 17.889 2.33 5.265 5.027 15.845-12.798-8.209-9.147 10.528 7.169 1.253 24.119 4.086 10.822 10.819-2.392 2.814-20.556-16.405-15.734-1.01 6.102 7.242 4.634 4.258 10.756 16.868-5.081 16.77 3.716 12.742 8.244 3.647 7.202 9.998 10.367 6.553 5.097-1.814 5.506-22.587 10.159-1.522 17.117-9.609 6.671-5.697 14.841 2.321 7.585 11.616 13.106-5.358.476 1.752 2.574 3.283 3.362 6.644-24.345 14.189-11.558 16.509.642 14.416-2.835 7.715-1.019 17.832 9.386-5.005 12.243-9.364 5.754 4.844 5.735 9.636-4.83 4.849 3.996 11.438 6.924 14.639 8.539 4.534 16.642 10.357zm-6.602-10.919c-14.152 4.794-9.318-22.671-2.322-7.172-13.58 2.505 15.017 5.92 2.322 7.172zm.686-8.984c-5.761-6.239 11.225-8.821 0 0zm33.66-69.368c8.63-12.54-19.711-4.046-15.523-5.938-8.228-7.71 17.819-15.987 9.859-4.553 10.458-6.146 19.472 6.734 5.664 10.491zm11.077-9.347c-12.6-5.844 8.646-14.703 3.54-2.972-2.613-1.165-1.755 4.364-3.54 2.972zm2.227-4.149c2.931-4.53 4.754-.372 0 0zm-45.415 1.786c-9.511-19.712 21.977-3.098 7.296-2.423-2.593.389-4.558 4.56-7.296 2.423zm-20.752-1.626c-13.641-.304-14.175-6.482-2.822-3.666 5.371-2.381 9.991 3.53 2.822 3.666zm130.48-10.992c.623-7.574 14.53.818 0 0zm19.706 12.07c15.884 1.682 1.063-14.474-4.337-10.183 13.486 12.067-4.163-2.281 4.337 10.183zm-239.637-19.402c-18.086-4.322 10.038-15.722.329-17.961-3.955-8.022-4.733-18.228-.26-22.853 4.13-.965 5.607-9.514 15.847-8.943-8.578-9.765 8.984-13.682-5.183-14.401 1.638-25.268-8.833-.91-5.217 8.627-8.243-1.157-14.827-19.221-14.34 1.436 9.533 3.246-1.647 21.436-5.203 6.485-2.342-11.045-4.418-12.785-6.222-25.488-6.253-8.357 13.39-28.172-4.116-24.127-4.602.651-1.509-18.109-12.222-1.335-6.804 4.118-4.482 22.079-6.808 27.247 6.817 3.323 16.512 20.435 7.647 24.691-9.94-8.684-2.384 5.267 3.225 9.769 4.075 8.926-2.197 9.42 11.459 23.08 6.603 4.571 12.143 15.331 21.064 13.773zm131.695-22.283c10.451-4.163 18.992-8.539 29.48-4.497 7.627 2.115 11.82-7.516 17.216-12.845-5.438 2.093-26.174 11.228-18.224-3.644 9.873 9.766 1.732-12.29-5.474-4.563-20.427-16.573-12.896 34.991-18.67 6.068-18.003-5.41 10.887 17.45-15.887 14.923-6.181-8.845-17.936-4.592-26.712-5.48-.145 19.997.291-5.249 9.444 5.917-3.448 7.693 14.056-5.088 20.152.341 4.737-3.826 4.938 6.902 8.675 3.78zm-5.937-10.684c2.667-16.726-11.504-17.242-23.268-13.457-3.979 25.377 2.846-10.614 3.72 11.369 9.737-7.276 7.392 3.72 19.548 2.088zm141.926-29.753c16.83-3.23 18.276-23.099 11.917-33.811-8.92-.48-11.125-1.82-14.618-6.173-15.811 10.676 10.03 4.7 6.952 13.362-5.677 8.803-23.896-14.328-18.285-1.845 13.356 7.436-14.413 6.38-1.538 15.319 9.524 6.014 16.68 8.326 15.572 13.148zm-269.737-2.805c-3.909-5.95-4.92-35.36-9.802-14.143-2.871 6.766 6.34 9.907 9.802 14.143zm127.526-10.855c16.093 3.729 9.357-12.791 23.057-6.489 5.748-5.908 20.422-5.644 28.468-10-.835-7.494-14.024 5.284-11.802-9.797-2.723-9.846-13.096-4.852-15.025 1.935-12.727-2.003-15.113 15.941-20.402.319-12.838 4.477-18.557-3.57-27.187-1.361-4.468 3.162-12.468 16.652 4.589 13.951.435 8.008 10.874 9.063 18.302 11.442zm62.064-12.95c4.999-24.102 6.117 1.498 9.842-8.569 1.35-11.45-7.024-7.445-9.131-7.348 2.17-4.645-12.361.278-9.094 5.686 10.443-6.394-.451 6.296 8.382 10.231zm14.822-10.347c8.72-9.675-12.241-6.557 0 0zm59.546-4.748c3.042-3.929-.021-25.485-7.557-20.268-10.452-1.215 1.015 3.584 4.154 6.394-6.317 5.466-1.995 6.578 1.333 14.165zm35.244-9.867c2.769-8.991 8.163-13.336 11.507-22.127-9.197-4.999 6.579-9.721-2.144-17.897 5.259 2.833-6.672-13.511-2.816-20.425 4.604-18.976 11.468 14.865 17.7-5.274-1.176-5.224 1.833-25.997-6.751-20.349-1.831-11.367-7.692-9.536-10.8-14.959 5.931-13.582 13.58-.826 16.211 8.643 2.241-15.89 5.235-22.71-11.091-21.571-11.189.713 5.112-6.699-2.172-13.697 6.581.386 6.416-15.476 13.358-22.307 12.384 5.47-9.086 23.546 11.173 15.738-.369-12.511-15.162-25.552-6.442-24.078-11.221.437 4.842-10.053 10.694-11.167-3.609-14.984-28.506-17.442-39.226-9.596 30.739 11.449-14.136 9.211-26.455 14.846-10.29-.841-25.147 1.737-37.454-4.986-12.322-3.103-28.721-5.372-38.349-4.365 8.72 10.215-25.556-10.568-6.759 12.188-8.527 10.66 4.02 6.424 6.989 18.419 23.881 15.615-7.523 16.468-2.23 29.255 2.72 5.005 9.862 7.849 20.081 17.618 13.084 8.564 23.722 20.437 35.717 30.515 8.872 12.763 17.781 27.791 31.09 37.586-.797 6.388 10.37 20.283 7.842 17.171 2.435 5.01 8.695 9.183 10.327 10.819zm-47.494-16.402c4.624-4.851-2.858-19.931-6.774-8.865-15.972 5.474 8.608 10.307 5.978 7.205l-.62 2.165 1.415-.505zm187.31-12.681c9.929-9.525 4.987-35.088 6.19-30-4.665-6.723-6.61-30.921-15.317-5.494-1.084 5.716 13.669 32.712 8.548 22.901 3.328-1.065-1.091 6.496-.049 13.122zm-449.008-19.093c17.02.519 10.98-6.228 22.502-7.875 3.646-10.702 17.291-17.751 21.914-31.817 16.987-3.819 9.972-19.379 20.59-16.826-5.408-15.653 4.36-5.356-4.578-17.187 2.756-11.523 1.052-2.756 6.197-13.783 2.614-10.726 15.163-29.606 5.492-34.059-6.851 4.878-21.381 9.274-20.661 17.796-15.289 1.373.592-7.823-12.65-12.535-7.579 14.065-23.085-3.529-22.908 5.37-9.795-1.03-17.326 6.122-7.658 9.354-2.909 10.853-18.461 2.984-20.353 17.369 16.071-16.264-1.053.298 1.481 2.809-11.416 4.926 3.623 27.492-6.705 14.813 1.363 10.825-5.694 23.063 2.833 28.038-8.228-1.177-.137 19.551.479 27.332 6.633 2.564 1.39 14.9 14.025 11.201zm45.807-71.22c-8.092-18.738 13.041.463 0 0zm415.633 46.58c.661-16.549-23.747-4.195-1.477.408zm20.68-41.564c9.409-9.021 4.847-57.888-8.612-38.768 5.355 5.977 5.522 28.581 7.043 39.583l1.567-.815zm15.693-16.442c3.615-11.488-5.139-1.864 0 0zm-516.492-16.455c15.371-2.6 22.532-15.457 7.11-8.687 9.011 11.248-12.774-8.594-8.19 4.574-2.333-2.953-10.235-9.399-5.031 1.1-4.094 1.656 5.818 4.483 6.111 3.013zm521.196-2.104c8.328-20.12 5.19-31.66-1.095-4.161-2.835-.988-1.055 8.361 1.095 4.161zm-154.805-5.918c13.669 3.973 5.811-18.019 2.759-9.636 3.841 1.934-18.381.924-2.759 9.636zm-295.553-4.719c14.732-10.69-19.592-9.258-10.324-6.786 13.615-2.947 1.161 8.145 10.324 6.786zm-69.504-11.936c10.074-3.025 16.796-2.829 27.512-3.503 16.868 1.472 9.669-10.117 25.653-7.928 14.884-8.95 9.677-9.079-3.751-6.109-12.123 1.552-18.53 9.099-25.358 8.027-6.929 7.356-12.385-3.38-18.905-3.955 3.655 13.901-17.232 5.859-13.635 6.034-11.917-7.137 3.656 12.5 8.484 7.434zm277.093-6.425c11.441-3.13 42.746 4.864 39.476-11.885 1.486-14.994-13.073-6.304-23.93-3.988-7.416 5.164-23.736 2.316-34.331 2.54-10.226-10.1-16.383 4.285-1.578 2.161-3.481 7.113 14.014 8.648 20.363 11.172zm249.556-4.333c4.833-21.351-6.09-12.716-.61.876zm-161.692-3.507c9.501-11.358-25.269-10.097-11.614-3.365-3.498 8.646 9.162-7.756 11.614 3.365zm-152.064.208c-1.64-4.735 11.761-11.028 19.153-7.456 8.378 1.304 15.958-3.089 11.615-6.286-1.474-3.861 17.641-5.5 22.544 1.58 21.57-2.287 21.056-13.709-4.853-7.174-16.436-8.182-22.627 1.889-34.413 2.468-23.482 7.325-10.127-19.677-15.576-16.723-8.381-3.444-19.465 17.588-9.072 25.886 3.854 3.183 6.481 6.591 10.602 7.705zm-115.222-.627c23.353-19.217-28.093-12.805-20.323-14.888-12.342 1.982-18.115-5.053-29.462-.551-13.753-3.178-5.634 6.554 4.591 4.242 7.635-4.175 27.334 2.712 18.481 5.083 5.395 2.206 16.471 2.46 25.124 6.154l1.33.564zm-65.924-8.162c17.149-6.614-17.313-8.475-1.234.254l.774.566zm-12.53-4.821c8.892-5.063-7.095-21.9-10.73-9.799 11.326.526 6.062 14.409 10.73 9.799zm87.286-2.931c6.817-10.919-28.201-32.459-9.639-6.919 9.507 1.329 3.788 4.089 9.639 6.919zm-56.776-3.028c17.09 1.578 27.034-17.292 11.93-17.85 2.988 6.892-20.258 19.967-11.93 17.85zm315.199-1.159c29.534-3.543-2.674-7.109-13.526-4.411-12.28 3.051 11.188 5.379 13.526 4.411zm-99.343-2.137c-2.015-17.995-26.901-28.312-23.675-6.487.685 7.394 17.797 4.435 23.675 6.487zm-33.892-1.311c8.805-4.849-15.952-12.209-2.282.221zm137.462-10.049c-1.257-1.29 16.788-6.266-5.796-3.418.12 2.355 3.591 4.805 5.796 3.418zm-356.956-25.081c7.952-1.954 32.793-9.271 15.307-12.485-13.785-.512-14.842.915-14.032 5.974-2.361 1.588-14.524 11.183-1.275 6.511zm309.692-.344c9.059-11.018-19.996-7.315-10.612-15.545-14.191 5.128-8.367-5.188-28.477-1.482-4.785-1.443-22.019 8.47-2.203 9.272 12.92 5.26 24.377 6.526 38.512 7.841.839-.359 2.513 1.919 2.78-.086zm-69.746-37.9c12.148-3.124 1.851-5.928-2.745.394l.409.541zm59.445-129.736c15.431-12.36-13.873-5.726-.001 0zm-4.026-14.731c-1.093-7.626-10.913-23.461-7.133-2.797-1.432 3.489 5.839 1.925 7.133 2.797zm-28.041 71.515c-14.328-12.791 9.514-9.905 2.87-1.913l-1.394 1.116z" fill="#ccc"/><path d="m273.271 818.363c-9.653-25.578-17.23-51.72-21.411-78.847-15.792-40.086-13.5-84.456-25.225-125.345-32.493-44.697-54.015-97.262-61.424-152.107-26.007-23.184-32.232-58.749-34.547-91.507 1.024-31.333-20.428-57.824-18.005-88.691-2.545-32.929 11.343-62.569 8.026-95.32 2.377-17.104-7.519-33.317-2.211-53.112-7.34-12.973-.385-26.585 1.716-42.867-.774-21.039 5.528-40.317 7.308-60.025 4.181-17.271 8.615-33.648 29.877-27.031 26.787.896 55.743-2.255 80.861 1.932 3.013 11.597 7.611 13.691 2.159 20.222-2.837 2.765 12.123 3.658-4.328 10.796 4.806 7.471-1.305 22.581 12.48 13.88-6.781 15.358 15.417 10.841-2.688 26.006 6.408 13.578 13.477-17.751 14.245-2.276-15.995 14.088-15.02 13.755-14.437 28.971.106.886-15.307 14.776-9.457 19.309-4.459 8.56-18.986 1.604-25.587 16.468-1.535 16.079-.839 9.01-11.943 14.507-14.909 12.77 9.144-.723 9.52 9.584-26.034 1.285 10.333 14.683-16.85 14.535 23.547-4.279.507 1.765 8.243 1.979 4.966 5.389-16.391 3.362 7.025 8.625 2.006-6.226 3.845-7.575 9.459-.923 11.974-6.36 26.792-9.244 17.838-3.852 20.755 3.042 3.371-10.528 24.117-12.678 20.404 1.432 41.362 9.03 60.993 9.548 13.2-2.795 19.387 10.125 30.33 9.361 4.575 7.151 5.831 12.749 6.928 23.981 4.847 9.924 13.514 20.875 11.675 29.59-4.783 10.117 3.888 33.347 1.288 32.318-4.256 8.679 6.135 19.82.222 31.164 7.674 15.27-12.939 21.418-9.115 38.6 4.08 10.808-12.587 12.362-10.702 25.808-.99 15.244 2.765 33.274 19.364 42.638 13.825 8.128 25.165-3.057 35.955-10.009 10.621-5.418 27.928-28.945 12.461-34.916 10.188-11.499-14.516-15.6-4.66-25.211-8.036-9.385 10.304-3.64.752-13.986 3.921-9.102-21.474-26.689-9.122-22.99-.43-4.817.162-26.334 1.693-36.695 1.542-7.172 4.56-24.772 9.881-44.426 7.034-12.111.614-22.298.638-32.36 7.465-10.214 17.517-6.968 25.424-8.248 7.51 1.571 19.35-9.174 14.101-10.499 15.658-8.026 25.258 4.249 40.864-9.15 22.669-2.118-8.981 15.986 18.678 1.323 3.43 5.442 18.409 4.493 5.484 8.749 16.985 1.003 2.752-12.385 18.303-1.016-13.17 4.954 40.619-.23 2.098 4.683-29.689 4.742 16.106-5.475 22.348 5.462 25.011 9.59-14.998-5.952 9.846-9.186-23.525-.042 18.231-4.59 3.139-9.686 16.436 4.52 15.186 4.119 8.72-7.973-1.983-15.126-17.698-28.189-7.623-38.978-2.667-8.349.724-14.634 9.5-18.593 13.624 14.012-7.621-18.447-2.716.195-10.54-.001-14.724-18.487-2.818-16.2-11.302-5.65-9.838-6.724-9.018-21.971.75-8.478-1.331-26.063 7.088-15.674 2.371-10.166-.1-21.602-1.138-27.464 17.249 5.118-6.04-24.3 18.246-15.193 38.111.964 78.25-1.826 115.415 1.173 11.136 21.675 9.372 46.759 15.432 70.215 3.214 15.499 4.221 36.233 8.149 53.539 2.285 15.629 7.953 30.966 9.631 47.826-10.54 25.872 16.222 32.079 17.238 56.939-5.356 3.757-7.2 40.534-11.715 9.301-7.709-.926-12.419 58.418-2.017 49.929 8.356-27.604 10.249-7.067 1.725 12.914-5.185 20.593-7.036 49.386-8.597 54.211-9.855 10.014-19.569 27.668-22.341 2.471-15.906-6.363-31.945 20.574-30.09 36.498-2.001 24.162 14.857 16.896-2.871 34.345-13.131-19.311.482 11.63-4.671 9.607-20.428-5.135-7.673 40.636-17.463 54.653-6.444 24.409-16.464 45.455-14.283 70.824 2.587 50.164.82 100.471-2.968 150.6-1.765 35.812-20.34 66.768-31.547 99.93-9.361-2.873-34.803 6.568-34.091-4.568 15.874-8.737-12.234 3.52-.23-17.247 2.751-7.863 17.913-14.803 1.54-16.201-8.727-3.776 1.647-19.252-13.771-18.735-11.56 5.401 5.177 14.826-11.36 16.171-4.53 3.802-11.572.457-18.558.098-8.328-2.79-7.936 8.676-18.416 10.062-8.34 3.566-13.675 2.05-13.446 12.295-11.15 4.022-9.159 27.231-19.65 6.65-8.933-4.391-17.118 6.229-22.677 5.867-6.539 5.938-12.27-4.373-21.072 2.224-18.589 7.78-46.785.239-68.629 3.254-34.177.077-68.363.287-102.535-.074zm111.719-110.675c4.751-5.549 20.968-3.751 27.001-7.379 8.15-3.773 11.087-4.198 15.901-10.35-5.436 7.912 13.503 22.082 6.871 8.487 7.762-10.28 14.017-8.769 10.046 6.326 6.545-3.337 21.468-9.197 15.686-8.904-11.395.82-10.136-11.146-8.924-19.435 6.859-8.65 11.668-1.912 9.527 3.971-4.117 1.943 14.931-4.447 10.754 2.837 6.346-11.617 4.824-7.89 11.061-10.533 8.969-4.638 24.108-29.855 19.571-26.957-7.081 20.309 15.537-4.494 4.867-3.229 5.554-9.435-1.54-6.663 6.798-19.126-7.573-7.329-.858-17.716 6.467-22.987 2.992-11.538 6.444-19.659 13.93-30.162 8.235-8.018-4.406 17.646 7.122 13.815 7.451 4.143 9.476 2.782 8.962 15.992 2.815 12.558 15.307-2.45 16.146-13.875 4.094-.458-8.048-18.494 7.167-13.738-7.235-5.982-9.3-8.649.541-3.913.083-6.724-2.719-1.414-.088-10.916 4.55-16.282 12.5-18.979 2.929-31.507 6.423-8.423 5.497-13.974 8.553-20.177 7.415-21.65-9.024-13.89 6.972-31.871-4.226-1.592-3.936-16.819-.604-29.519-12.281-2.281.489-32.941-.404-25.131 12.339 5.572.573-10.335-2.27-7.115 13.252 10.069-4.21-22.051 15.373-16.676-10.98-9.057 6.641-21.042 3.423-29.871-10.423-20.446 12.84-14.122 8.065-29.795-3.444-16.101 12.451 10.515 6.547-7.77 5.449-12.496-.563-38.151 2.731-32.371 1.444-8.488 8.849-9.357 1.295-17.995-4.161-5.056-4.259-15.753-2.751-14.962-2.581-11.917-33.862-4.707-46.271-15.494-9.878 3.373 14.374 22.88-10.518 19.8-13.74 12.644 2.36-13.433-6.617-14.563-4.911-11.048-10.466.963-16.606-7.764-6.457 9.539-7.703 12.968-14.883 12.086.318-3.806 17.94-13.677 9.431-22.018-14.175 18.065-47.273 9.662-48.295-13.971-21.762 4.698-13.094 17.575-18.386 21.168-5.251-10.206-12.834-5.272-18.693-.281 9.232 12.792-16.236-1.03 2.409-14.001-11.239 3.535-30.834 10.644-23.985 21.285-17.759-5.279-.771 26.185.071 22.788-3.804 14.749 11.041 21.247 16.894 32.806-10.486 4.241-16.165 12.793.201 6.254 16.94 18.53-13.891-3.596-1.157 7.353-.356 16.765-17.618-11.141-16.894 1.59 7.714 17.07 17.961 13.858 25.181 23.733 12.36 6.212 17.465 13.12 13.372 17.243 4.687 6.335 4.919 13.138 9.526 20.47.481 4.976-3.759 4.118-2.876 16.54 11.863 6.181-19.327 34.64-2.459 28.987 18.513 9.301-.276 9.938-7.298 15.547-13.499 4.188-13.512 3.306-25.788 9.94 1.059-9.037-6.699-8.224-3.445-.619-10.459 11.119-9.168-2.578-18.893 2.509-2.796-12.652-8.173 1.359-9.464 8.47-11.418 3.499-16.62-4.071-21.377.012 2.602-11.644-12.242 2.707-18.52-2.854-9.967-2.401-11.146 5.144-12.28 9.719-11.042 4.429.356-13.312-9.214-12.611-11.195-2.11 12.908 17.683-7.312 6.499-13.064 2.018-9.818-23.266-10.995-1.913-1.031-7.963-8.033-13.689-8.559.939-1.346 15.638-14.55-7.064-6.583 8.079-10.258 11.292 6.592 5.411 10.653 9.636 7.291-14.555 6.165-6.607 11.016-9.664 8.614-.767-.999 16.714 8.814 1.843.286 11.03 10.88.756 24.131 14.244 12.974 3.921 30.552 11.864 42.178.41 2.678 8.151 19.119-5.97 33.483-6.681 7.686-.004 17.716 5.984 28.632.445 5.201-9.669 16.369-4.737 24.654-10.645 14.384 9.776-9.808-12.952 4.862-7.01 5.269-1.549 9.667 3.667 8.906 15.453 5.593 4-8.059 13.257 10.501 17.233-12.091 3.654-32.739 3.323-34.658 16.358 2.678 6.108-2.596 11.66-10.583 19.648-7.097 7.081-16.744 11.224-25.228 17.369-1.685 8.933-33.489 5.561-14.874 1.108 7.029 1.19 9.771-17.884 20.119-19.727 9.109-9.24-15.017-7.202-11.609-11.479 2.131 19.346-6.094-6.222-11.781-2.255-10.27-5.172-19.737-6.041-31.381-5.27-15.005-.893-6.428 20.385-13.536 1.33-5.717 1.43-14.352-2.868-19.19-1.445-15.266 2.411-10.475 13.972-18.447 20.575-9.421-13.892-17.072 14.832-.312 17.129 13.289 9.258.875 13.205-8.006 5.834-7.968-.619-21.185-10.724-26.625-10.731.385-8.992-17.218-22.677-13.233-21.391-1.386-2.831-25.202-4.941-14.939-15.879 6.548-11.72 4.258-28.006-1.552-27.929.77-3.595-7.549-12.543-4.363-23.344 11.298 6.353-2.792-9.165 10.895-10.44-2.411-9.999 4.489-17.118 9.786-22.78-12.94-.18 7.179-19.032-9.328-17.232-5.27 4.398 5.844 11.518-6.047 6.546-13.103 17.627 8.401-1.247.044 11.38-11.828 8.851-10.993 10.207-19.474 26.47-10.096 11.214-7.515 9.106-15.204 2.103 11.627-14.855-25.23-9.738-4.285-17.346 12.987 2.523 11.961-4.589 15.139-10.908 3.223-7.225 6.148-18.726 15.105-21.85 3.54-7.301 11.044-20.114 19.872-28.198 13.111-10.498 13.252-22.71 25.29-28.545 8.241-12.021 3.23-22.455 3.69-33.953.456-15.336 7.489-20.22 9.933-32.654-3.58-13.634-21.194 16.426-20.498 1.216-13.337-2.239-31.991-.628-10.47 4.754-10.162-2.498-25.805-1.178-17.359 2.568-10.176 1.373-31.472 9.552-51.221 6.327-21.252-7.238-47.66 11.718-24.474-11.11 14.095.706 35.252 3.896 46.618 1.832 15.447-1.755 24.937-9.559 38.102-17.519 5.152 3.429 23.369-11.118 20.718-.142-23.862 8.956-1.789 9.359 8.473 10.422-3.554-14.274 10.971-2.569 16.051-19.166 11.634-8.01-1.248-21.886-10.179-27.383-14.731-8.141-13.071.429-1.957 9.983 12.257 17.023-19.702 6.305-25.826 8.923.19-5.266 15.668-6.304 11.329-13.149-9.576 13.013-18.738-27.106-24.653 3.61-11.571 17.855-37.21 10.585-42.567-8.721-15.746 3.838 2.635 26.662-3.065 23.018 4.394 3.266 12.785-.526 17.336 2.469-5.89 9.958 16.725-7.83 11.26 6.92-11.824.215-18.364 4.309-28.562.498-8.964-1.893-9.267-1.863-24.629-1.268-15.094-1.548 10.576 17.831-7.187 17.353-4.32-6.591-16.949 2.647-16.422 10.551-9.905 6.874 10.158 12.44.422 19.511 8.773-7.264 7.365.857 8.177 5.777-5.684 9.035 13.038 1.534 9.669 11.908-16.589 13.432-5.25 5.235 7.005 2.023-.744 25.822-2.258-4.682-7.554 6.421-23.288 11.975 5.614-2.408-2.574 7.47-5.77 6.12-2.646 10.778 7.421.051 5.089 6.301-3.62 15.678.595 25.424 13.097 13.918-23.618 1.434-3.33 15.079 6.962 13.066 4.336 10.12.602 13.857 3.627 10.413 12.541 20.82 4.28 29.322-2.837 8.757 10.949 13.511-.965 25.474-.206-14.527-4.847 16.709-6.949 12.07 9.1-3.287-1.233 21.256-3.363 5.138-17.05 10.956 4.171 14.727 1.748 27.57-6.674 11.151 5.591 26.795 2.762 40.938 18.386-8.51 9.177 19.978 22.027 20.306-4.964 8.911 19.533 9.562 14.33 21.715 15.461 3.474-3.531-13.655 11.206-4.702.554 5.327 10.814 9.484 8.276-9.373-10.547-2.868 8.235-8.77 9.906-18.061 13.368 6.123 10.232 10.292 12.841 24.646 13.737-1.751 1.807 10.021 4.482 23.121 11.256 1.678 7.488 21.167 16.561 20.688 10.327 20.615-7.999 3.323-4.292 12.685 3.591 10.476 9.238 10.74 9.572 22.384-3.923 6.093-1.528 26.201 8.035 13.689-2.783-5.676 5.456-4.491-3.428-12.162.91-25.48 3.551-1.907 11.327.688 1.105-23.972 8.356 4.699 8.134 4.152-10.546-3.014-5.438 6.772-15.75 11.482 6.854 5.417 6.771 24.73 12.557 7.089-8.36-18.007.69-14.69 3.701.78 5.415 6.958 2.125-13.33 9.013 6.97 7.887 15.801 20.802 19.307 23.113 12.012 6.681 5.391 5.972 4.209 7.595 11.222zm57.738-20.107c-21.77-4.629 8.034-4.611-.412-10.228 9.417-3.955 4.724 14.982.412 10.228zm-187.724-169.363c-1.654-3.501-1.857.828 0 0zm294.912-39.826c-3.141-12.728-14.233-16.896-11.092-29.899-9.598-8.619-12.099-22.102-22.589-28.158-6.609-9.616-13.331-18.02-22.143-26.57-7.065-7.212-7.251-29.505 1.89-13.404 10.815 7.865 21.412 20.599 22.152 22.036 4.252 9.522 15.445 19.607 18.965 29.09 13.338 9.863 6.796 21.283 11.236 34.141 3.3 2.173 4.196 11.177 1.581 12.764zm-64.215-15.954c-6.796-14.592 22.878-30.066 10.462-9.057-7.904 7.3-4.619.81-10.462 9.057zm27.335-175.208c-11.826-4.303-28.95-7.636-43.372-9.874-3.484-4.918-2.759-7.67-15.503-11.758 7.326-8.386 22.741-1.815 30.55 1.707 13.415 7.701 33.792 13.874 50.397 9.231 17.583-2.828 20.46-1.532 36.014 3.224-15.887 5.415-38.151 8.138-58.086 7.47zm-66.416-14.382c-17.05-13.579 3.655-7.209 0 0zm54.781-11.46c3.59-5.669-17.075-4.635 2.807-6.585 4.313-2.812 9.878 10.843-2.807 6.585zm15.492-1.073c-2.399-6.073-3.983-7.04 5.493-9.421 6.848 7.238-2.831 8.454-5.493 9.421zm-196.863 417.182c-.012-12.076-11.28-20.429-6.22-7.338 2.938.584 4.525 7.379 6.22 7.338zm-16.595-34.484c-7.18-19.145.929-9.308 5.218-23.64-2.895-6.882-7.822 12.441-11.994 1.676-3.365 15.134-.934 11.006 6.776 21.964zm-11.086-35.64c8.333.729 2.644-20.767-2.362-6.107-3.567.744-2.616 9.987 2.362 6.107zm308.948-64.714c7.13-9.717 15.221-7.576 13.987-21.807 7.217 5.152 8.71-19.109 3.073-19.366 12.536-.768 1.536-4.74 6.13-21.67 5.483-18.766-17.34-9.692-2.69-23.76-5.22-27.175-15.243-1.564-8.028 6.838-9.332 14.583-7.505 18.376-12.916 43.453.807 18.433.749 10.2-4.496 17.138 4.129 4.851-3.018 18.301 4.94 19.174zm-390.434-48.521c-.751-4.067 1.396-4.017 0-.001zm90.307-92.376c4.543-2.711 1.307-16.199 9.616-21.815-3.425-15.549-15.316 10.265-15.289 16.216-8.518 1.362 5.687 9.347 5.673 5.599zm150.133-12.159c8.534-5.074 4.119-24.227.222-8.686-12.882-5.019-11.54 7.834-.222 8.686zm239.37-20.431c2.58-13.085 15.721-44.359 13.538-17.379 10.922-6.438 2.174-38.648-.426-14.565-12.291-43.164-19.242 24.622-13.112 31.944zm37.72-10.167c11.756-18.265 18.222-44.149 10.33-66.024-9.89-29.798-32.389 5.19-13.773 19.096 2.621 12.183 3.108 27.991 1.707 39.514-6.161 2.114-5.262 11.777 1.736 7.414zm-128.347-109.728c19.524 4.317 32.237-15.67 2.153-8.931-29.007-9.75-27.106 7.602-2.153 8.931zm5.11-13.756c27.735-2.166-1.415-18.936-8.551-7.127-3.867-15.954-25.495-5.625-23.165-19.467-5.816-12.122-16.849-13.168-25.582-20.017-20.013-4.712-28.456-2.492-44.863.101-9.839 1.793-21.104 5.393-9.292 9.547 21.858 1.672 45.469 10.989 65.449 14.475 8.923 3.772 23.002 13.733 25.876 18.749 6.704 1.15 12.972 6.244 20.128 3.739zm-86.979-13.871c2.777-9.731-21.906-1.712-2.871.507l1.883.609.987-1.116zm-288.81-6.477c14.522-8.329 42.173-7.838 50.516-16.159.429-8.783-21.785-5.273-32.716-7.698-27.407 3.251-11.51 9.872-38.593 10.841-5.432 10.676 7.876.519 3.628 8.53 8.089-4.894 11.234 7.052 17.165 4.486zm55.217-3.004c-16.646-10.323-23.708 2.758 0 0zm-78.57-94.213c20.097-31.765-39.13 38.511-3.057.429zm29.546-29.492c9.265-15.12 4.473-14.171-.473-6-8.871-2.085.949 4.744.473 6zm-7.097-16.138c18.875 4.045 13.591-18.702 8.741-5.306-2.768-1.295-16.253 7.578-8.741 5.306zm480.766 367.599c9.651-9.166 7.038-21.006 8.426-34.996 8.498 21.057 17.434-5.591 5.281-19.062 7.489 17.929 25.027-40.239 17.524-6.863-8.682 19.55-9.58 53.99-31.231 60.921z" fill="#777"/><path d="m273.555 818.185c-8.35-26.99-17.805-53.61-21.58-81.857-12.644-35.985-16.392-75.383-19.795-112.472 12.06 16.21-8.068-16.548-12.565-22.604-29.235-41.021-46.401-89.874-53.863-139.518-17.837-.367-32.747-71.875-18.188-35.724 11.665-3.589 12.498 6.9 7.91-14.257-1.165-1.786 1.507-32.605-4.419-10.516-5.129-35.159-8.463 11.449-13.827 7.401-8.797-28.212-5.494-62.925-16.059-92.187-4.526-19.636-5.958-39.424-5.736-57.601-2.049-27.584 10.204-53.793 6.63-82.074-2.886-15.96-4.567-34.538-4.494-51.77-4.28-15.218 6.66-31.089 2.71-46.832 6.895-19.408 2.329-38.586 11.488-57.45-.321-27.869 29.844-13.583 47.385-17.199 10.487-.267 44.003-2.834 36.957 6.361 3.486 5.282 14.123 2.395-.724 10.146 1.786-1.126 5.065 8.632-3.413 10.047 15.761 16.748-6.567.866-5.255 9.769 11.457 3.779-13.665 21.114 1.046 14.505-5.582 21.941 15.42 3.145 2.793 21.457-12.185 14.001 15.361 2.762.267 16.98 1.828 12.038-12.555 21.56-5.408 31.653 3.023-18.514 10.855-5.97 5.451 2.384-6.107 8.514-20.474 29.44-18.321 28.16-.949 3.439-7.295 16.525.446 15.333 6.853 4.5-16.548 5.094-2.413 6.938-12.017 5.774 22.972 1.521-1.463 7.502 8.403 2.569-2.447 9.002 18.12 3.759 19.889-6.37 30.306 7.235 6.65 4.649 26.295 8.24 10.551 7.15-2.812 2.236-7.891-5.391-5.107 4.03-12.567 3.177 17.102-2.77-4.197 8.862 1.029 9.597 17.613-5.946-4.977 24.006 14.673 16.426 15.557-10.113 35.553-15.898 55.684-20.001 18.849-1.697 32.27-5.985 24.319-8.162-13.446 3.179-11.555-7.022-25.925-4.36-6.55-4.217-59.454-4.56-33.771-8.011 19.848 2.628 19.802-1.978 18.638-11.937-5.945 5.423 18.157 10.344 21.653 3.71 4.826-2.699 32.362 10.114 29.704 6.106 10.172 5.949 22.648 2.627 34.776 7.849 12.732 4.891 10.291 10.312 15.469 19.775-.301 10.503 6.841 26.9 10.538 33.802-5.311 15.129-1.213 28.6-.291 40.544 3.422 7.398.122 21.109 2.254 33.137-9.812 12.669-12.369 14.658-13.509 24.315-13.704 6 9.495 3.192-6.645 12.495-2.254 13.686-5.956 22.668.739 39.412 9.102 12.799 18.532 25.549 33.948 30.225 8.092-5.784 19.751-8.069 27.333-17.883 11.973-11.659 22.329-21.819 18.01-35.684 8.675-8.3.726-27.839 8.358-28.63 13.828-3.035 6.682 9.561 7.057 17.166-6.525 13.531-3.614 20.274-4.261 33.537-6.342 11.517 10.526 12.395 16.092 7.762 8.273-4.174 11.379-13.923 12.279-18.869-.312-17.696-9.562-19.458 2.08-21.329 1.589 9.234 9.64 20.913 4.239 32.121-2.22 4.958 2.652 24.715-6.637 26.658-.984 8.68-15.509 14.956-13.443 12.392 1.325-6.772-16.756 5.643-16.086 5.158-2.077 4.384-13.203-2.337-21.153 6.672-7.788 4.813-8.393 9.433-14.429 10.506-8.221 8.438-19.51-9.112-28.822-1.138-8.623 8.58-20.07-6.653-29.98 1.752-8.706-.236-9.811-7.833-15.406-17.633-1.285 26.748-13.823-25.02-7.944-.182-1.861 6.314-13.081 3.384-9.569 17.671 7.531 12.57-8.195 7.441-7.327-4.706 7.148 3.924-.222-21.126 5.83-13.451 10.639 4.401 7.483-11.492-.071-15.6 13.379 4.771-2.091-4.007 2.11-11.996 5.299-10.706-4.986-26.607 5.463-33.697-11.883-1.274 16.392-23.239-1.799-11.608-14.761 5.659 8.813-10.658 8.787-12.854 5.396-9.128 21.569-14.175 11.58-22.063-2.594 8.907-2.923-17.541 7.885-18.219-1.346-14.154 6.766-7.703 6.902-20.418-7.565-9.818-10.969-25.125-1.182-32.925 6.458-15.793-6.806-19.655-18.019-29.522-5.849-5.405-22.198-1.813-5.267 7.191 28.473 18.08-26.13 15.555-8.984 9.625 7.972-5.282-3.8-8.694-18.253-17.551-4.874 35.168-46.763 22.685-51.439.329-12.217 5.007-1.695 26.823-1.982 27.755-12.563 11.87-10.756-1.482-7.834-6.683-6.387.384-10.625 7.484-17.386 7.533-14.87 5.154 6.412 24.545-3.852 18.858-8.269-.411-11.526-2.825-16.57-8.333 10.145-13.07-18.284 4.246-21.429 3.113-2.701 13.686 8.682 21.538 5.578 19.076-6.101 2.081-5.747 5.119 6.271 8.583.497-1.201 3.12 19.804-1.581 14.963-7.429-14.879 1.895 24.667-.859 19.865 12.81 4.525-9.224 20.572 7.877 23.038-12.542-1.878 7.76 9.962 2.321 14.765 5.45-15.661 13.523-6.663 3.926 3.075-3.917 17.033 8.001 17.682 6.193 35.601-2.238 9.922 8.696 28.008 5.499 32.906-7.313-6.898.298 32.024-12.048 19.188-3.08-14.336-7.989-32.807-16.931-13.326 13.233 6.377 5.57 11.559 6.739 27.296-6.97-4.949-5.356-5.721-4.238 11.154 4.209 3.929 21.516 29.61 3.281 19.453 8.209 1.59 3.584 20.935 13.832 20.76-8.493-17.015-.401-22.725 5.691-4.122 4.53 9.669 6.747 25.419 8.214 32.495 12.254 6.409 7.014 27.873 16.441 34.545-19.715-5.773 7.091 17.609 8.865 2.979 10.419 3.537 20.758 3.328 13.016 7.69 10.249 11.846 4.693-12.823 8.212-10.763-2.382-7.092 14.119 14.886 10.986-10.917 5.12-12.945 1.257-19.332 8.065-7.252 10.037-3.507-9.045 13.326-.241 6.237 3.839 8.551 7.225 12.669 7.528 19.643-16.754-3.063-4.281 9.092-.169 17.81-4.483 6.887-4.337 15.214 1.35 20.54-.735 5.15 7.794 36.371 11.94 18.624 10.305 5.418 4.886 23.883 15.371 26.642 4.936 15.501 16.969 14.364 26.36 23.487 10.647 4.49-5.784 2.202-6.625 9.334 1.801-18.058-.33-2.941-9.53-7.302-1.321-5.363-19.469-5.481-24.487-16.348-22.54-22.631 19.932 29.575 35.288 25.968 30.504 10.241 64.015 13.588 95.658 7.665 7.186-5.242 25.442-1.393 8.925-14.436 14.876 8.467-1.671-1.172 11.91-3.122-10.768 15.209 19.288 11.656 21.018.128 13.321 4.652 28.123-13.595 39.333-21.298 2.977-8.59 12.474-13.397 24.08-21.372 29.307-16.931 58.314-35.994 78.26-64.285 15.05-20.801 18.225-27.468 27.152-45.702-10.962 6.498-9.234 14.262-18.31 15.631.618-1.33 9.955 12.254-4.622 5.468-14.77 8.279.871 1.592-5.293 14.273-4.671 6.658-10.682 2.053-4.588 11.606-13.827-4.345-14.739 3.287-21.015 2.418-22.648-2.849 14.966-6.036 9.679-12.531 6.076-.145-16.273-20.5-.759-7.226 1.647-8.17.035-19.811 5.075-20.402 14.152-7.5 7.013-16.477 17.007-25.918 6.295-18.107 3.827-6.589 8.88-23.05-1.632-9.5 1.932-29.094.432-25.362-.4 1.163 17.241-17.093 13.182-17.038-12.947-.975 5.206-11.689-7.974-13.885-15.083-1.548 2.869-9.208 1.782-16.951 3.969-6.004-6.159-21.795-1.298-27.462-4.808-18.03 6.171-11.444 4.822-9.582-2.025-29.305-11.541 16.893-11.977 6.053-9.686 8.087-12.125 5.319-13.75 20.149.787 14.207-9.859-2.646-12.423-10.848 11.253-7.104 2.384-17.9 6.314-23.263.505-10.622 9.39-17.913 12.314-27.26 5.893-2.627-10.066-25.683 7.878-20.528-8.873-4.774 3.967-17.87-.781-18.115 7.9 8.635 12.485-12.72 3.997-8.373 8.417-3.589-2.534-18.436 2.962-21.994-8.158-19.34 4.412-15.661-3.477-30.791 1.492-.389 17.117 9.181 3.068-4.464-15.871-10.6-43.707-6.038-62.051-15.23-7.258 5.47-13.51-4.198-24.945-5.753-.084 5.826-6.291.963-5.684-4.902-.974-20.883-40.863 34.782-49.07-7.428-3.058-21.816-23.11 10.818-36.918 7.338-17.092 17.228-2.954-2.392 3.611-11.846-2.899-.702-6.374-1.966-8.577 4.073-19.925 6.385 9.635-16.532-14.832-3.006-9.652 19.171-15.609 12.257-20.854 31.515 6.655 1.181 18.959 25.685 5.92 19.827-.283 3.847 4.985 29.669-.509 24.962 1.811-2.456-16.948 8.625-9.41-10.506 11.785-2.409-16.895-7.007-1.228-8.292 2.313-10.049.157-26.771 4.911-28.86-6.347-14.733 5.124-29.229 6.519-39.794-2.54-16.21 2.568-20.605 20.589-24.901 16.275-10.342 37.8-14.286 55.417-22.657 5.78 8.595-26.985 10.285-6.011 8.511 12.537-4.056 31.41-8.012 11.038 2.025 9.054-4.914 45.833 8.756 35.295 7.999-13.45-.145-23.907-3.5-29.833-.312-5.702 3.434-23.787.533-24.673 7.314-9.259 3.992-19.582 3.151-24.958 10.463-2.587 1.956-16.022 9.098-20.319 14.098-2.09 10.387 8.94.97 19.623-6.07 13.96-5.699 28.427-15.315 45.478-9.555 30.717 3.528 59.535 14.88 83.624 33.967 17.483 3.062 37.455 1.123 6.59 5.368-37.518-15.388-2.619 19.113 17.007 10.606 30.154 6.363-3.556-.427 11.785-3.39 6.095-6.975 16.27-17.332 24.469-6.662-10.412 8.925-6.034-1.885-12.936-.377 1.292 19.202 11.318.924 18.356 1.904 5.402-5.002-9.383-4.781-3.092-14.086 13.087-8.767-3.79-7.724-3.558-19.406 6.346-9.136 1.417-19.648 8.613-26.622-12.504-2.263 9.711-18.127 2.725-28.579 1.351-3.073-3.172-17.676-1.426-27.819 2.618-7.046-.339-16.01-2.05-29.909-8.998-24.975 5.952-6.581 3.717 5.659 12.782-11.005-13.449-25.22-4.966-33.445 12.177 7.591 1.302-8.383-2.75-16.244 8.95-8.578-2.255-2.037.762-14.338-5.794-12.224-23.19 5.615-10.234 16.086 6.367 8.109-18.123 4.945-2.353 9.616-14.641 10.435 8.41-.274 6.981 13.326 9.778 7.617-11.98 8.874-.546 10.181-3.003 11.203 3.326 13.659-2.278 21.394-7.175 8.554.447 13.219-4.279 20.709-4.933 11.738-6.481 18.735-6.784 28.594-8.769 8.253 6.226 18.816-2.976 27.507 4.178 4.196-3.148 10.403-.212 17.665-10.442 8.623 7.873 11.521 5.652 15.8 9.245 5.959-4.741 15.714-12.444 18.492.837-8.239-7.888-14.515-15.85-18.127 5.717 2.777-.823-10.099 3.365-9.923-16.027-5.408 1.516-2.815-4.884-11.047-8.676-10.602-15.184-19.677-2.377-17.004-9.151-11.451 4.922-4.29-8.606-17.753 4.486-5-9.976-16.635-8.41-27.43 9.056-4.486 7.957-3.719 16.931-4.662 8.204 11.524 10.601-1.244 15.579-2.808-7.939-10.505-1.841-10.469-.92-12.203-2.35-4.994 12.419-14.955-1.886-24.901 8.269.253-12.999-14.77 1.323-17.99 16.366.504-20.001-13.581-14.292-13.38.475-14.354.149-17.999-7.631-26.616 4.044-8.888 1.846-16.992 10.64-25.155 8.453 22.92-7.027-20.321 19.054-4.648 19.483-2.811 21.284-.461 20.642 10.829 2.244-8.833 10.876-13.614 27.476-10.829 27.016-6.468 53.135 2.749 48.021 34.669 3.339 25.075 10.131 49.291 11.477 74.026 4.414 13.068 3.057 25.715 8.347 37.644 5.747 14.363.902 38.31 4.692 47.333 1.103 11.868 19.948 16.477 4.195 22.762 20.414 22.691-11.018 10.045-7.948 36.346 2.532 24.998 1.154 40.75-7.825 15.081.656-.216-23.664 3.187-17.827 14.165-.457 14.342 8.561 31.08.958 38.322-.837-1.464-20.232-20.697-13.422-1.275-14.607-16.005-17.242 20.196-15.914 39.207-2.12 12.041 5.238 50.61-2.068 47.913-12.498-13.947-5.172 28.189-12.772 34.868-3.813 14.321-2.171 30.259-6.885 46.976-2.706 12.889-6.399 28.542-13.177 38.802 8.393 2.612-16.823 12.628-7.627 18.011 12.472 3.573 2.588 50.313 5.539 71.781-.208 56.779 3.892 118.899-24.211 171.269-3.281 10.871-15.132 41.863-14.805 15.021 3.997-3.983 8.252-16.537 3.923-22.507 11.93-10.358-18.099 3.969-.642-13.199-3.984-7.221 2.845-1.459-1.822-16.794-2.103-7.585 5.193-16.66-5.637-17.755-.042-8.852 14.854 1.503 6.687-11.024 5.679-10.98-8.719 1.547-11.83 6.449-9.043 7.057-13.304 8.827-26.263 14.461.428-11.296-7.046-7.737-14.081-8.95-17.111 6.88-9.13-4.711-16.588 9.463-7.532 5.995-15.316 12.054-14.543 24.077-.67 3.222-20.303-5.282-17.664 6.527-9.693-1.442-1.545-10.812-12.475-9.067-1.426 4.025-17.123 8.848-18.441 2.918 3.352-14.96-7.651-11.745-14.625-16.651-6.639 1.573-15.24 7.366-18.86 1.108-10.628-8.796-14.288-.997-23.225-1.895-11.698 4.202-12.831 21.73-1.847 22.261-5.628 3.134-17.036 14.567-12.706 13.195-8.18 1.265-6.432 11.338-16.705 10.483-11.793-9.953-11.663-4.446-27.655-.739 9.449 16.854-25.807 9.548-3.775 3.516 11.613-9.65-.161-8.526-.596-16.057-6.331-9.872-21.229-7.738-13.006-.997 4.722 3.101-14.287 17.738-8.615-3.894-9.287 1.818-1.831 8.99-8 18.152 12.311 4.119-17.177 3.797.358 15.546-14.525 10.052-41.356-.125-58.906 3.126zm347.216-54.533c.673-5.684-3.344 4.414 0 0zm-331.342-92.828c-7.426-11.095-17.638-22.382-28.466-24.863-6.316-10.894-35.023-18.661-6.119 1.405 12.365 7.823 25.006 14.496 34.585 23.458zm-36.273-55.514c2.331-19.512-10.307-7.071-.782.789zm-65.577-156.906c-.489-10.922-2.723 9.257 0 0zm455.304-30.321c1.784-4.079 3.483-1.954 0 0zm3.462-39.769c-4.739-17.941-12.583-.479-.607 3.791zm-509.924-40.627c5.785-11.138 2.965-27.863 2.998-39.821-5.492 8.364-14.956 34.115-2.998 39.821zm512.113-81.076c13.832 3.482-6.987-21.348.63-5.195 1.912.792-13.138 3.56-.63 5.195zm-466.556-9.765c-5.889-7.7 31.596-4.148 10.726-12.899-18.277-8.922-22.8 9.43-10.726 12.899zm146.339-11.683c1.607-15.541-19.8 3.865 0 0zm-127.21-8.628c12.875-12.064 1.47-9.085-11.129-4.993-3.8 2.301 9.186 5.631 11.129 4.993zm428.343-15.225c4.463-5.106-10.916-3.095-1.434.514zm-331.502-2.617c4.387-6.244-16.787-4.772-.547.572zm186.878-2.732c6.08-5.26 15.924-5.54 24.827-7.375 15.628-4.645-22.641-6.358-26.899 5.194l.22 2.009zm-195.868-.922c.168-16.35-46.42.45-17.308-3.973 5.671 3.019 14.36 2.309 17.308 3.973zm-86.732-.466c11.992-5.039-18.242-2.228-2.295.892zm421.241-34.611c7.435-5.573-16.007-21.314-3.035-4.862l2.116 5.32zm-.342-20.399c10.516-6.666-.308-22.453-1.409-3.983-7.002 4.92-.834 2.543 1.409 3.983zm51.299-50.324c-.007-11.284 2.576-.082 0 0zm-5.442-8.533c-1.08-18.608-10.219-20.316-2.466-3.294-.14.702 1.05 6.143 2.466 3.294zm-37.098-5.452c1.201-11.528-5.514-20.872-4.256-30.766-4.667 1.369-5.587 11.725-5.71 18.165 4.46 1.928 8.488 6.201 8.167 13.098zm39.554-3.865c4.909-22.37-3.825-6.123-7.431-24.317-6.298 9.574 7.089 10.893 7.431 24.317zm-52.097-24.722c14.029-7.745-6.615-12.728.223-6.571-5.546-.043-5.176 9.123-.223 6.571zm-245.066 648.872c-2.796-10.999 11.575-8.132 1.12.047zm86.697-7.819c4.991-8.699 22.261-8.344 25.448-20.377-.081-11.931 9.532-1.853 13.34 3.059 3.553 6.032-17.37 3.884-19.078 11.966.283-4.582-10.048 3.609-17.483 5.671l-1.033.871zm11.805-12.893c-4.264.076 4.885-15.004 3.921-7.153-2.618.277-.385 8.738-3.921 7.153zm28.639-9.004c-4.709-8.532.628-5.557 3.81-19.23 12.038 11.837 2.203-3.396 9.563-4.664-2.39-16.25 6.163-10.289-.124-19.416 1.136-18.117 3.175 4.226 11.705-8.425 8.372-.137 8.601-35.605 14.777-19.072 9.293.347.127 6.324 5.996 8.969.787 4.083 16.91 16.472-.128 19.963-5.868 4.72-11.116 14.853-23.526 14.693 10.643 11.756-12.501 10.661-14.195 21.148-4.682-1.953-1.925 8.436-7.878 6.034zm-6.609-5.18c-12.703-.709-3.716-11.962 3.382-18.376 3.448 6.068-.946 15.709-3.382 18.376zm66.748-51.386c-7.664-17.876 13.294.83 0 0zm-38.875-2.727c-6.433-8.644 7.359-7.289 7.409-16.061 6.01 4.462-2.101 16.789-7.409 16.061zm46.843-.719c-11.273-7.376 13.489-6.37 2.137-.698zm-271.723-10.696c-5.782-9.674 3.907-4.435 0 0zm224.533-8.414c-.226-16.053 14.858-9.728 1.463-.129zm16.044-10.465c-9.948-.248 10.861-5.152 1.843-.167zm-193.144-40.801c-3.567-6.712-15.675-7.012-23.928-12.242 2.657-12.48-15.044-16.092-12.464-25.224-4.082-8.668-14.685.595-20.685-3.749 2.322-12.153 15.396-23.661 7.523-37.772-5.027-16.349 12.395 18.818 10.191 14.107 5.241 3.684 38.167-17.304 23.554-7.5 1.118-17.234 4.481 11.536 19.699-1.357 9.86 2.32 22.582 6.099 32.704 9.956 10.726 4.43 21.044 7.867 29.853 1.236 11.953 2.85 13.201-9.715 28.202-8.218 13.895 1.14 27.274-1.426 39.764.474 9.339-8.561 12.779-1.38 21.274-3.245 14.102-8.005-5.66 4.25 7.333 9.173 23.93 8.644-17.343 5.693-24.156 15.236-3.853 6.91-18.689 14.975-26.994 10.398-7.486-13.081-4.358.023-15.946-3.794-12.132-8.271-10.372-1.321-27.25-5.186-18.082 4.133-37.045-.45-52.821.707-11.861 1.091-13.587 22.194-24.758 16.23-7.175 4.492-7.664 8.134-4.678 18.356 12.287 13.87 4.202-12.077 9.894 3.149 2.548 4.367 14.224 8.769 3.689 9.265zm241.668-18.408c-1.137-9.341 5.928-23.074-1.508-18.314 7.742-7.195 3.153-39.851 17.495-28.324-1.722 16.35-12.03 31.56-12.816 47.036h-1.424zm-270.033-73.681c-10.182-12.968 4.496-15.457.686.402zm-53.577-16.279c1.19-12.982 15.651-34.308 7.495-32.317 2.689-5.295 21.911-22.682 16.593-7.88-4.435 12.715-16.102 24.02-19.54 36.087-2.177-.909-2.29 5.891-4.548 4.11zm462.962-73.517c7.253-18.825 20.196-40.203 17.904-63.875-.756-27.735 11.728 4.172.404 19.109.011 15.21-5.589 37.243-18.308 44.766zm-31.419-4.062c-9.617-14.796 33.824-30.087 24.982-19.212-6.764 1.595-14.888 17.125-24.982 19.212zm-244.483-11.956c-10.853-24.931 19.67-3.758 6.341-4.984-5.298-15.769-6.077 6.386-6.341 4.984zm-193.594-64.924c-9.493.629-68.255-2.159-33.873-7.636 23.168 3.56 53.396 2.724 70.822-14.538 8.66-1.236 16.79-4.148 23.486-3.509-15.512 8.61-8.615 9.677-28.598 15.055-.414 5.924-24.65 5.371-28.553 10.837zm255.94-6.839c-15.493-3.44-47.072-14.625-41.996-10.046 2.92-8.036-4.226-9.962 14.401-5.888 10.241 8.761 24.183 9.167 38.108 10.213 15.474-3.288 26.017-.665 41.676-.473 2.413 3.486-37.391 7.544-52.189 6.194zm-254.739-22.196c-7.441-12 4.888-.119 3.421-2.55 11.804 2.404-.647 1.237-3.421 2.55zm328.8-49.154c-3.794-7.127 2.528-12.327-7.266-7.064-12.881-.082 5.392-16.094-19.28-11.772-11.086-8 13.386-12.268 21.6-1.69-12.412-9.885.805-13.148 8.199-1.204-7.939 2.878 2.274 21.25 5.951 6.856 4.024-7.11 6.037 8.237 2.428 10.838-3.686-.847-2.147 7.301-11.632 4.036zm.068-32.325c-25.953-13.73 14.465-3.617 0 0zm-39.297-.279c6.909-5.898 12.827 2.311.387.775zm94.364-2.244c-15.861-15.077 4.517-14.823 0 0zm-425.246-60.564c8.534-6.173 20.753-19.915 10.91-4.198-4.055 1.549-6.569.31-10.91 4.198zm-3.335-8.288c7.362-16.501 11.497-6.31 5.614-1.45 2.369-10.351-2.92 5.74-5.614 1.45z" fill="#444"/><path d="m274.05 818.328c-8.263-29.237-19.632-57.649-22.352-88.315-11.598-31.775-15.244-66.027-17.536-99.511 17.291 20.879 46.747 27.603 61.005 51.41 7.95 15.525 28.066 24.612 35.694 34.435 6.548 14.267-8.123 27.945-5.258 24.121-9.001-1.484-18.6 8.463-28.074 9.328-4.726 6.126-15.022 12.224-6.61.558 13.144-9.314 1.999-7.139-5.681-1.546-2.669-12.171-10.453-18.169-22.669-11.394-2.235 10.413 19.864 16.751 14.379 22.118 1.504 16.311 17.461 8.495 15.176 23.719 2.161 10.86 30.395 34.776 12.836 35.305-10.302-.023-20.612.139-30.91-.228zm-12.671-82.808c1.819-12.155-13.857-17.384-4.135-4.502 3.783-.294-.635 5.891 4.135 4.502zm364.325 52.208c3.43-5.396.977.321.041.867zm3.199-10.758c1.027-10.238 1.256-23.234 5.988-34.383 3.704-18.819-10.031-7.013-2.615-17.734.937-9.326 3.14-19.314 2.124-29.184.432-2.479 7.901-17.709 4.703-24.061 7.536-14.105 11.184-49.955 10.531-9.815-1.189 38.681.498 81.071-19.441 115.602l-1.291-.425zm-279.105-34.637c-14.348-10.573 15.418-9.452 3.145-1.238-1.038-1.659-1.833 1.888-3.145 1.238zm142.253-6.217c-5.786-6.38-1.638-17.749-5.825-14.769-9.83 3.726-1.162-14.284 4.338-4.298 3.089-4.701 8.578-17.577 17.531-24.571 9.444-7.625 10.417-2.533 16.36-1.731 13.989-8.063-2.173 15.129 2.136 13.297-8.222 8.416-25.728 6.454-28.046 13.63-4.372 5.716-3.843 12.831-6.494 18.442zm-153.374-4.888c-11.153-12.114 6.512-22.422 5.552-4.12 10.744 6.345-6.589-2.667-5.552 4.12zm237.787-19.898c-8.836-14.578 11.926-6.132 15.782-16.803 5.88 11.561-10.363 11.517-15.782 16.803zm-34.082-15.45c2.334-14.434 20.833-8.232 6.918-.99-3.085.57-6.157-.949-6.918.99zm32.98-.931c10.372-15.781-1.77-8.074-9.063-3.245-7.594 2.741 6.651-15.727-6.749-17.715 4.03-2.108 5.678-11.612 11.129-7.528-6.164 15.693 11.552-.081 4.992-3.919-7.517-5.829 22.828-18.934 17.893-16.018 7.278-8.772 21.689-2.07 10.779 5.762-10.301 6.263-8.674 10.936-12.757 15.874 9.075 4.19.068 19.126-5.316 23.02-2.426 2.341-7.72 5.006-10.908 3.769zm-288.801-32.688c-.894-8.129-8.724-8.369-8.766-13.107 2.867 1.284-7.002-22.551-8.485-16.335-5.609-13.813-1.577-8.669-2.135-18.229 5.908 3.04.599-17.593 5.987-2.19 11.997 2.508 7.449 26.784 13.487 37.126-.151 11.937 6.626-.835-.088 12.735zm319.078-26.653c-6.312-11.015-.388-18.406 7.274-30.557 14.376-16.158 27.844-38.55 37.072-54.925-1.193 20.02-3.368 35.404-5.015 51.585-9.499 10.196-15.87 17.227-21.804 18.273-5.147 2.325-10.126 15.834-17.527 15.624zm-412.123-86.038c-6.757-13.535 1.909-9.052.888.57zm-7.047-11.669c-9.098-25.147-14.114-51.939-20.319-77.61-10.831-24.824-4.251-54.962-13.148-80.171-8.966-2.917-21.818-15.439-12.532 5.54-9.079 33.179-3.754-11.085-8.679-22.721 10.225-.346 14.74-15.403 12.64-27.99 9.867-15.729-9.071-54.919-13.183-19.218 1.19 42.174-14.35-9.189-5.342-20.48-10.341-18.636-6.742-42.922-8.514-62.382 7.702-22.223 5.684-47.839 3.679-70.299-3.922-15.82-.142-31.559-3.806-47.291 7.146-18.03 2.101-28.924 6.733-48.588 2.977-15.353 1.991-29.666 7.812-43.986-4.002-16.511 28.668-28.657 25.336-14.246-7.032 20.797-10.125 30.852 2.869 4.864.649-17.242 40.58-12.521 36.506-.34-2.896 3.473 2.346 3.719 2.521 13.699-3.302 8.349-1.487 23.23-1.614 30.599-.661 8.704-5.094 9.079-.756 20.625-9.987.654-3.533 13.817-.188 11.775 3.027 3.179-14.851 5.648-2.93 14.078 11.728-5.2 11.942 6.025 4.392 1.754-7.771 1.088-6.147 13.7-7.683 23.417 12.007-.292 2.242 21.989-7.033 15.209 5.893 2.722 8.638 12.481 3.003 18.296-6.186 5.881-10.327 21.404-8.704 26.282 20.632 5.136 28.229 4.505 5.766 6.21 1.138 4.858-12.764 12.878 8.53 3.582 13.553 2.913-14.107 4.979-8.536 9.369-.53 1.483-7.235 16.533 6.218 9.278-7.893 15.457-5.18 4.862-12.454 10.485 11.056 11.834-7.35 12.024-4.639 22.965-12.314 7.021-4.83 2.987 5.008 9.243 14.958-2.461 32.826-6.733 21.162-18.29 2.779-1.494 16.775-16.167 24.769-19.701 20.798-12.825 48.833-18.281 71.11-18.549 15.58 3.469 33.437 15.023 46.658 22.225 11.812 6.701-9.115-15.208-3.772-16.344-11.553-11.979-21.851-10.192-34.664-15.382-17.036-2.365-24.225-6.57-41.952-5.568-10.48-7.636 23.717-11.621 3.913-7.007 17.247-2.666 10.829-.224 30.578 1.179 12.23 4.592 22.71 7.507 33.998 11.606 7.726-2.742 20.299 7.642 23.583 22.421 4.294 6.408 7.737 41.628 2.129 23.429-7.618-2.201-20.127-10.002-17.29-15.345-9.535-2.091-17.669-1.998-25.329-7.386-9.66-4.907-11.053-1.792-23.673-7.361-17.648-9.606-55.955 10.569-16.185 2.239 9.575 3.211 17.861 3.447 25.42 10.131 9.489 7.61 25.747 7.062 30.998 18.016-14.761-7.655-12.393-4.532-23.84-11.063-15.719-12.626-15.9 30.812-39.143 18.612-13.786-13.885-25.89-36.895-29.815-6.264 2.576 2.85-27.137 12.228-24.457 13.697-10.06-2.84-28.877 11.107-40.221 8.062-9.139 4.098-15.193 5.571-8.197 12.362 1.32 1.561 13.363 7.144 1.177 15.857 7.945 3.32-1.728 4.034-1.325 15.878 7.271 4.919 5.146-1.898 8.436 15.426 1.627 6.464-5.848 23.916 4.797 23.622-.83 8.764.397 26.894 8.041 24.924 4.839 18.349-2.9 13.206 8.674 26.805 2.874 1.158 8.657 18.07 13.098 27.777-8.796 8.54-6.12-11.345-14.561-8.935-9.398.894-11.814-15.635-15.4-.912.775 10.062-6.463 29.645.933 30.99 1.165 14.651-7.176 19.315 3.024 27.683-9.06 4.618 3.23 13.005-.749 27.52 8.331 11.649.965 14.797 8.547 22.216-4.018 2.652 4.999 12.355-1.425 13.482zm88.698-292.409c13.419-4.132 9.817-12.472-4.777-8.571-7.967-3.334-1.946 14.219 4.777 8.571zm-126.152-17.446c6.823-6.768-15.893-22.204-.942.506zm-26.335-80.491c4.407-12.957 11.555-23.254 17.891-33.595 3.338-16.783-12.759 25.157-16.894 22.682 10.509-14.151-6.674 13.023-.997 10.913zm28.54-49.852c6.38-4.142 4.373-21.585-1.011.764zm10.419-15.73c15.278-8.29-2.131-8.413-3.136.309-1.769 3.198 3.474-.36 3.136-.309zm-24.356-2.304c6.602-20.434 4.218-32.132-1.804-3.801-1.905.761-.169 7.727 1.804 3.801zm496.154 437.816c-1.12-6.948 9.857-7.492.913.496zm-343.048-2.771c3.777-13.883 15.263-16.705 26.328-22.87 9.279-.784 32.112-6.199 26.22-6.598-2.15 7.906 15.735 3.745 4.171 7.934-10.902 1.737 26.285 15.309 19.938 2.373 8.997 1.689 38.78 11.322 45.41-.787 9.327 6.588 30.528-.91 28.573-3.019 3.691-9.526 22.004-4.006 31.876-4.258 11.045-1.076 20.875 5.158 31.175 2.156 23.359 10.669-5.149 4.644-15.342 13.27-11.877.157-18.257-1.436-32.221.105-39.546 7.886-80.249.419-120.091 5.716-19.402 3.023-20.579 5.125-39.347 3.663-1.566-.708-5.756 5.514-6.69 2.315zm91.274-67.342c-5.902-4.862-18.722-2.872-23.937-6.932-7.341-5.985-13.032 5.585-19.032-6.779-7.409 11.61-4.207-4.354-10.605-4.639-13.369-.831-18.179-44.51-8.712-24.358 12.377 10.644 28.864-.428 12.457-13.134-4.921-10.062 1.816-30.968 1.395-10.808 2.767 19.018 25.607 28.229 33.931 39.744-6.492 1.302 6.912 23.068 19.369 14.133 10.066-1.537 10.022-17.274 21.054-21.603 17.489-20.006 2.445 3.875 24.011-8.988 6.396-5.061 53.948 13.62 36.659 3.776-3.5 16.614-18.859 10.163-25.224 22.329-8.728-9.44-19.356.252-28.554 7.861-14.844 3.159-21.301 9.49-32.812 9.398zm287.253-15.372c-9.028-3.14 2.511-11.948-9.094-19.933-12.164-26.734 13.61 2.165 4.664-22.199-5.345-2.827 2.678-12.463-6.895-14.639-.663-11.622.342-1.838 6.375-14.321-8.308-8.511-.062-8.001-4.728-19.761-6.072-12.23 7.11-4.404 1.222-19.917-7.5-8.472-5.226-14.54 3.971-2.401 6.988-.639 5.21 12.589 9.053 21.407 2.209-7.97 4.087-23.58-1.629-25.754 4.978-13.101-1.242-26.059 4.192-30.183 2.763-11.525-12.624 2.915-5.326-17.396-4.761-9.506-4.583-25.441 2.032-33.84-.98-16.56-.314-21.374-1.281-38.383 5.096-8.727-7.735-21.695.938-32.646-12.806 29.894-.815-10.891-9.081-23.849 13.235-2.396 5.549 31.544 11.434 15.141.424-6.428 1.854-25.254 1.971-34.123-.204-20.003 3.896-43.118-2.567-64.691-3.507-40.124-.316 48.562-7.286 10.389.88-16.014-4.732-28.298-8.467-28.482-6.647-8.528 3.494-19.152-7.072-9.148.074-12.239 3.404-9.497 1.468-16.869 2.475-21.664 32.122 8.323 24.031-6.891 15.932-.461 34.236-1.56 35.417 10.154 16.737 14.608-10.861 8.142 4.042 22.97 3.08 15.014 5.003 18.148 8.763 39.712-2.732 9.299 9.258 18.32 3.841 34.017 5.8 5.6 4.756 18.305 5.213 27.596 1.161 16.943-22.596-22.996-6.114 5.541-4.009 5.279 2.869 35.812 8.825 28.189 6.682-3.516-2.68 9.71 6.497 18.858-12.134-10.689-11.965-7.938-3.163 6.272 2.383 5.045 12.51 19.284-.622 19.704-21.079-6.32 10.011 17.668-2.334 30.564-5.124-8.958-7.641 4.073-13.89 10.884-16.163 17.033-15.551 26.569-10.509 50.624-10.765-5.655-10.93-9.95-16.965 2.118-16.689.622-8.8 33.117-11.63 46.322-1.72 22.753-7.221 45.84-11.972 67.639-3.054.169.87 9.926-3.324 7.325zm25.491-139.47c14.958-6.185.017-32.551 1.788-19.862 11.327 6.152-11.2 24.886-1.788 19.862zm2.784-26.923c1.847-4.93-15.536-30.672-.395 1.196zm10.918-9.483c-.621-6.171-17.09-27.506-17.859-22.313 2.753 20.12-12.464 13.943 4.303 18.001 10.384-25.74 7.097 23.319 13.556 4.312zm13.098-10.28c9.665-8.483 1.963-50.762-.821-37.212 8.796 20.627-7.538 18.705.821 37.212zm-39.517-2.441c1.755-12.166 6.87-55.05-.861-22.219-3.079 8.285-5.952 15.853.861 22.219zm10.757-26.043c4.32-15.184-4.879-5.075-1.34 2.035zm1.31-12.636c.915-13.321-4.334-75.512-5.776-32.166.626-3.721.207 22.907 5.776 32.166zm4.621-6.055c.529-8.712 22.354-51.861 8.498-39.485-4.618 16.177-3.088 15.9-8.449 9.652.022 8.661.33 27.482-.049 29.833zm-15.988-8.361c9.771-19.589-1.706-35.74 3.113-54.5-1.393-12.282 3.291-34.849-2.537-21.37 3.658-36.36-4.241-15.923-1.933 4.451-.791 11.959-6.022 16.008-2.169 28.707-.184 17.462 9.588 17.054 1.831 43.422-2.757 3.627 1.342 2.005 1.695-.71zm17.269-59.693c-2.99-17.668-8.953-42.71-8.075-8.016 5.732 2.614 5.118 4.917 8.075 8.016zm14.55-10.36c8.892-4.251-13.479-14.462-1.633-1.992l-.265 2.656zm-61.559 225.28c-8.383-1.029-8.222-23.747-2.184-11.635.699-1.772 2.521 9.464 2.184 11.635zm-295.571-48.648c-7.634-9.582-.618-16.93-.711-32.553 4.158 2.119 3.398 25.776.711 32.553zm221.596-51.277c-16.279-4.455-31.558-7.513-37.749-22.011-.051 10.573-33.081 28.924-25.538 18.096 7.757-12.249-13.535-3.788-12.896-16.331-10.077 1.757 4.692 21.873-7.615.87-.317-16.47-19.014 2.914-26.626 5.665-3.359-4.242 9.619-11.079 19.86-15.61 11.552-7.17 21.617-7.305 35.62-7.067-13.962-12.954-37.654.415-49.929 5.398-7.699 3.638-16.704 3.78-26.111 12.969.378-9.911 20.427-22.323 42.437-26.166 37.757-1.515 72.706 16.216 102.42 37.866-16.954-11.335-21.057-4.101-13.873 6.321zm-126.671-6.632c6.541-12.61 24.511-15.769 4.338-2.641l-3.939 2.39zm-14.184-38.078c6.05-11.024 23.725-6.434 30.055-19.763 17.797-9.248 26.394 1.806 46.729-4.697 19.756 3.637-11.761 3.382-17.239 8.007-14.13.063-24.452 7.348-35.011 9.68-7.496-1.825-17.748 11.482-24.534 6.773zm232.408-62.328c-7.173-18.389 7.842-11.65-.001 0zm-473.442-10.908c-1.42-17.003 11.05-21.715 3.729-2.941-2.263-.13-1.486 3.64-3.729 2.941zm476.398-4.791c-1-4.075-13.854-16.2-7.749-12.158-6.719-35.068 10.825 11.393 7.749 12.158z" fill="#222"/></g></svg>